<svg width="24" height="24" viewBox="0 0 24 24" fill="none" xmlns="http://www.w3.org/2000/svg">
<path d="M2 9V3H4V5.35C4.85 4.28333 5.8875 3.45833 7.1125 2.875C8.3375 2.29167 9.63333 2 11 2C13.5 2 15.625 2.875 17.375 4.625C19.125 6.375 20 8.5 20 11H18C18 9.05 17.3208 7.39583 15.9625 6.0375C14.6042 4.67917 12.95 4 11 4C9.85 4 8.775 4.26667 7.775 4.8C6.775 5.33333 5.93333 6.06667 5.25 7H8V9H2ZM2.05 12H4.1C4.3 13.55 4.9375 14.8625 6.0125 15.9375C7.0875 17.0125 8.375 17.6667 9.875 17.9L11.075 20C8.775 20 6.75833 19.2375 5.025 17.7125C3.29167 16.1875 2.3 14.2833 2.05 12ZM12.35 13.75L10 11.4V6H12V10.6L13.4 12L12.35 13.75Z" fill="#E8EAED"/>
<path d="M14.8889 22C14.6444 22 14.4352 21.913 14.2611 21.7389C14.087 21.5648 14 21.3556 14 21.1111V14.8889C14 14.6444 14.087 14.4352 14.2611 14.2611C14.4352 14.087 14.6444 14 14.8889 14H21.1111C21.3556 14 21.5648 14.087 21.7389 14.2611C21.913 14.4352 22 14.6444 22 14.8889V21.1111C22 21.3556 21.913 21.5648 21.7389 21.7389C21.5648 21.913 21.3556 22 21.1111 22H14.8889ZM14.8889 21.1111H21.1111V14.8889H14.8889V21.1111ZM15.3333 20.2222H20.6667L19 18L17.6667 19.7778L16.6667 18.4444L15.3333 20.2222Z" fill="#E8EAED"/>
</svg>
