<?xml version="1.0" encoding="UTF-8"?>
<svg xmlns="http://www.w3.org/2000/svg" width="38.019" height="33.33" viewBox="0 0 38.019 33.33"><defs><style>.a{fill:none;stroke:#fff;stroke-linecap:round;stroke-linejoin:round;stroke-miterlimit:10;stroke-width:3px;}.b{fill:#fff;}</style></defs><g transform="translate(0.699 -2.043)"><path class="a" d="M.8,33.873,18.31,3.543l17.509,30.33Zm0,0" transform="translate(0 0)"/><path class="b" d="M20.78,28.3a.246.246,0,0,1,.26.264v1.909a.245.245,0,0,1-.26.26H19a.248.248,0,0,1-.264-.26V28.559A.249.249,0,0,1,19,28.3Zm-.053-13.17a.245.245,0,0,1,.26.26V25.937a.248.248,0,0,1-.26.264H19.052a.248.248,0,0,1-.26-.264V15.385a.245.245,0,0,1,.26-.26Zm0,0" transform="translate(-1.579 -1.019)"/></g></svg>