<svg width="26" height="26" viewBox="0 0 26 26" fill="none" xmlns="http://www.w3.org/2000/svg">
<path d="M2.75753 26C1.99922 26 1.35004 25.73 0.810009 25.19C0.270003 24.65 0 24.0008 0 23.2425C0 22.4842 0.270003 21.835 0.810009 21.295C1.35004 20.7549 1.99922 20.4849 2.75753 20.4849C3.51584 20.4849 4.16502 20.7549 4.70505 21.295C5.24506 21.835 5.51506 22.4842 5.51506 23.2425C5.51506 24.0008 5.24506 24.65 4.70505 25.19C4.16502 25.73 3.51584 26 2.75753 26ZM13 26C12.2417 26 11.5925 25.73 11.0525 25.19C10.5125 24.65 10.2425 24.0008 10.2425 23.2425C10.2425 22.4842 10.5125 21.835 11.0525 21.295C11.5925 20.7549 12.2417 20.4849 13 20.4849C13.7583 20.4849 14.4075 20.7549 14.9475 21.295C15.4875 21.835 15.7575 22.4842 15.7575 23.2425C15.7575 24.0008 15.4875 24.65 14.9475 25.19C14.4075 25.73 13.7583 26 13 26ZM23.2425 26C22.4842 26 21.835 25.73 21.295 25.19C20.7549 24.65 20.4849 24.0008 20.4849 23.2425C20.4849 22.4842 20.7549 21.835 21.295 21.295C21.835 20.7549 22.4842 20.4849 23.2425 20.4849C24.0008 20.4849 24.65 20.7549 25.19 21.295C25.73 21.835 26 22.4842 26 23.2425C26 24.0008 25.73 24.65 25.19 25.19C24.65 25.73 24.0008 26 23.2425 26ZM2.75753 15.7575C1.99922 15.7575 1.35004 15.4875 0.810009 14.9475C0.270003 14.4075 0 13.7583 0 13C0 12.2417 0.270003 11.5925 0.810009 11.0525C1.35004 10.5125 1.99922 10.2425 2.75753 10.2425C3.51584 10.2425 4.16502 10.5125 4.70505 11.0525C5.24506 11.5925 5.51506 12.2417 5.51506 13C5.51506 13.7583 5.24506 14.4075 4.70505 14.9475C4.16502 15.4875 3.51584 15.7575 2.75753 15.7575ZM13 15.7575C12.2417 15.7575 11.5925 15.4875 11.0525 14.9475C10.5125 14.4075 10.2425 13.7583 10.2425 13C10.2425 12.2417 10.5125 11.5925 11.0525 11.0525C11.5925 10.5125 12.2417 10.2425 13 10.2425C13.7583 10.2425 14.4075 10.5125 14.9475 11.0525C15.4875 11.5925 15.7575 12.2417 15.7575 13C15.7575 13.7583 15.4875 14.4075 14.9475 14.9475C14.4075 15.4875 13.7583 15.7575 13 15.7575ZM23.2425 15.7575C22.4842 15.7575 21.835 15.4875 21.295 14.9475C20.7549 14.4075 20.4849 13.7583 20.4849 13C20.4849 12.2417 20.7549 11.5925 21.295 11.0525C21.835 10.5125 22.4842 10.2425 23.2425 10.2425C24.0008 10.2425 24.65 10.5125 25.19 11.0525C25.73 11.5925 26 12.2417 26 13C26 13.7583 25.73 14.4075 25.19 14.9475C24.65 15.4875 24.0008 15.7575 23.2425 15.7575ZM2.75753 5.51506C1.99922 5.51506 1.35004 5.24505 0.810009 4.70505C0.270003 4.16501 0 3.51584 0 2.75753C0 1.99922 0.270003 1.35004 0.810009 0.81001C1.35004 0.270005 1.99922 0 2.75753 0C3.51584 0 4.16502 0.270005 4.70505 0.81001C5.24506 1.35004 5.51506 1.99922 5.51506 2.75753C5.51506 3.51584 5.24506 4.16501 4.70505 4.70505C4.16502 5.24505 3.51584 5.51506 2.75753 5.51506ZM13 5.51506C12.2417 5.51506 11.5925 5.24505 11.0525 4.70505C10.5125 4.16501 10.2425 3.51584 10.2425 2.75753C10.2425 1.99922 10.5125 1.35004 11.0525 0.81001C11.5925 0.270005 12.2417 0 13 0C13.7583 0 14.4075 0.270005 14.9475 0.81001C15.4875 1.35004 15.7575 1.99922 15.7575 2.75753C15.7575 3.51584 15.4875 4.16501 14.9475 4.70505C14.4075 5.24505 13.7583 5.51506 13 5.51506ZM23.2425 5.51506C22.4842 5.51506 21.835 5.24505 21.295 4.70505C20.7549 4.16501 20.4849 3.51584 20.4849 2.75753C20.4849 1.99922 20.7549 1.35004 21.295 0.81001C21.835 0.270005 22.4842 0 23.2425 0C24.0008 0 24.65 0.270005 25.19 0.81001C25.73 1.35004 26 1.99922 26 2.75753C26 3.51584 25.73 4.16501 25.19 4.70505C24.65 5.24505 24.0008 5.51506 23.2425 5.51506Z" fill="white"/>
</svg>
