<svg width="48" height="48" viewBox="0 0 48 48" fill="none" xmlns="http://www.w3.org/2000/svg">
<path d="M15 30H18V22H15V24.5H12V27.5H15V30ZM20 27.5H36V24.5H20V27.5ZM30 22H33V19.5H36V16.5H33V14H30V22ZM12 19.5H28V16.5H12V19.5ZM16 42V38H8C6.9 38 5.95833 37.6083 5.175 36.825C4.39167 36.0417 4 35.1 4 34V10C4 8.9 4.39167 7.95833 5.175 7.175C5.95833 6.39167 6.9 6 8 6H40C41.1 6 42.0417 6.39167 42.825 7.175C43.6083 7.95833 44 8.9 44 10V34C44 35.1 43.6083 36.0417 42.825 36.825C42.0417 37.6083 41.1 38 40 38H32V42H16ZM8 34H40V10H8V34Z" fill="white"/>
</svg>
